<svg width="106" height="29" fill="none" xmlns="http://www.w3.org/2000/svg"><path d="M37.41 15.314h-1.64v7.62H32V4.257h3.77v7.465h1.268l3.244-7.465h4.59l-4.564 8.697 5.077 9.98h-4.487l-3.488-7.62zm9.385 7.62V4.257h5.77c1.948 0 3.427.436 4.435 1.308 1.017.864 1.526 2.134 1.526 3.81 0 .95-.21 1.766-.628 2.45a3.709 3.709 0 01-1.718 1.5c.837.24 1.483.723 1.936 1.45.453.719.68 1.608.68 2.668 0 1.813-.5 3.182-1.5 4.105-.992.924-2.432 1.386-4.321 1.386h-6.18zm3.77-8.12v4.99h2.41c.675 0 1.188-.21 1.538-.629.35-.419.526-1.013.526-1.783 0-1.676-.607-2.535-1.82-2.578h-2.655zm0-2.745h1.96c1.48 0 2.219-.766 2.219-2.297 0-.846-.171-1.453-.513-1.821-.342-.368-.897-.552-1.667-.552h-2v4.67zm23.628 4.643c-.094 2.13-.692 3.742-1.795 4.836-1.103 1.095-2.658 1.642-4.667 1.642-2.11 0-3.73-.693-4.859-2.078-1.12-1.394-1.68-3.378-1.68-5.952v-3.143c0-2.565.582-4.54 1.744-5.926C64.1 4.697 65.714 4 67.782 4c2.035 0 3.578.569 4.629 1.706 1.06 1.137 1.662 2.77 1.808 4.9h-3.783c-.034-1.317-.239-2.223-.615-2.72-.367-.504-1.047-.756-2.038-.756-1.01 0-1.723.355-2.142 1.065-.418.7-.64 1.86-.666 3.476v3.528c0 1.855.205 3.13.615 3.822.419.693 1.133 1.04 2.141 1.04.992 0 1.675-.24 2.052-.72.376-.486.59-1.363.64-2.629h3.77zm15.534 3.354v2.916H78.693v-2.916h3.722v-9.57a19.92 19.92 0 01.053-1.484l-2.206 1.797a1.36 1.36 0 01-.585.273 1.815 1.815 0 01-.532 0 1.472 1.472 0 01-.452-.169 1.082 1.082 0 01-.293-.26L77.098 8.96 83.133 4h3.403v16.066h3.19zm10.69-4.453v-4.947c0-.304.009-.63.027-.977.026-.355.062-.724.106-1.106l-5.118 7.03h4.985zm5.584 0v2.265c0 .2-.071.374-.213.521-.133.148-.328.221-.585.221h-1.196v4.362h-3.59V18.62h-7.79c-.257 0-.492-.079-.705-.235a1.003 1.003 0 01-.385-.586l-.425-1.992 8.96-11.795h3.935v11.6h1.994zM6.29 0v10.25L0 13.977l18.17-4.66V0H6.29zm0 15.84v-1.863l18.17-4.426-6.29 3.494v1.63L.7 19.103l5.59-3.261zm18.169-.931L6.52 19.102v4.193l6.057 4.892 5.59-7.688V18.17l6.29-3.261z" fill="#fff"/></svg>