<?xml version="1.0" encoding="UTF-8"?><!DOCTYPE svg PUBLIC "-//W3C//DTD SVG 1.1//EN" "http://www.w3.org/Graphics/SVG/1.1/DTD/svg11.dtd"><svg xmlns="http://www.w3.org/2000/svg"><symbol id="arrow-next" viewBox="0 0 29 8"><path d="M28.354 4.354a.5.5 0 0 0 0-.708L25.172.464a.5.5 0 1 0-.707.708L27.293 4l-2.828 2.828a.5.5 0 1 0 .707.708l3.182-3.182zM0 4.5h28v-1H0v1z" opacity=".9"/></symbol><symbol id="arrow-prev" viewBox="0 0 29 8"><path d="M.646 3.646a.5.5 0 0 0 0 .708l3.182 3.182a.5.5 0 1 0 .708-.708L1.707 4l2.829-2.828a.5.5 0 1 0-.708-.708L.646 3.646zM29 3.5H1v1h28v-1z" opacity=".9"/></symbol><symbol id="arrow" viewBox="0 0 11 6"><path stroke="currentColor" stroke-linecap="round" stroke-linejoin="round" stroke-width="2" d="M1 1l4.5 4L10 1"/></symbol><symbol id="close" viewBox="0 0 20 20"><path d="M18 2L2 18M2 2l16 16"/></symbol><symbol id="unit-1" viewBox="0 0 23 23"><circle cx="11.5" cy="11.5" r="10.25" stroke="#3A40CB" stroke-width="2.5"/><circle cx="11.5" cy="11.616" r="3.606" stroke="#3A40CB" stroke-width="2.5"/></symbol><symbol id="unit-2" viewBox="0 0 23 23"><circle cx="11.632" cy="11.632" r="2.98" stroke="#3A40CB" stroke-width="2.5"/><path stroke="#3A40CB" stroke-width="2.5" d="M1.25 1.25h20.5v20.5H1.25z"/></symbol><symbol id="unit-3" viewBox="0 0 26 23"><path stroke="#3A40CB" stroke-width="2.5" d="M9.594 1.25h7.546v20.5H9.594zM1.207 20.976L24.736 1.677"/></symbol><symbol id="unit-4" viewBox="0 0 29 23"><path stroke="#3A40CB" stroke-width="2.5" d="M1.25 9.71h25.523v12.04H1.25z"/><path fill="#3A40CB" d="M5.621 0h2.044v17.889H5.621zM13.289 0h2.044v17.889h-2.044zM20.443 0h2.044v17.889h-2.044z"/></symbol></svg>